<svg xmlns="http://www.w3.org/2000/svg" width="41.386" height="37.588" viewBox="0 0 41.386 37.588">
  <g id="noun_Plant_211194" transform="translate(-0.989 -2)">
    <path id="Tracé_83" data-name="Tracé 83" d="M41.437,5.717c-5.009,0-12.084.419-15.7,4.033a8.955,8.955,0,0,0-2.144,7.006.94.94,0,0,0,1.654.543,21.861,21.861,0,0,1,7.435-5.636,1.064,1.064,0,0,1,.808-.034.888.888,0,0,1,.515.449.919.919,0,0,1-.526,1.287c-.038.019-.071.043-.109.06-.013.006-.028,0-.039.009-7.206,3.387-10.748,9.3-12.357,15.372-1.173-7.608-3.65-12.086-5.99-14.836a17.844,17.844,0,0,0-4.321-4.016,8.662,8.662,0,0,1-.942-.714.94.94,0,0,1,0-1.329.96.96,0,0,1,1.372.041,4.677,4.677,0,0,0,.462.336l.167.113a19.456,19.456,0,0,1,6.142,6.39.94.94,0,0,0,1.727-.3c.491-2.505.271-6.223-1.964-8.457C14.011,2.419,6.935,2,1.929,2a.94.94,0,0,0-.94.94c0,5.009.419,12.084,4.033,15.7a8.7,8.7,0,0,0,6.142,2.184,10.5,10.5,0,0,0,5.148-1.289c1.93,4,3.471,9.974,3.471,19.113a.94.94,0,1,0,1.879,0c0-5.1.874-11.218,4.123-16.255a9.187,9.187,0,0,0,6.029,2.154c.124,0,.246.006.368.006a8.666,8.666,0,0,0,6.159-2.2c3.616-3.616,4.033-10.692,4.033-15.7A.934.934,0,0,0,41.437,5.717Z" transform="translate(0)" fill="#fff"/>
  </g>
</svg>
