<svg id="Icone_-_cadenas" data-name="Icone - cadenas" xmlns="http://www.w3.org/2000/svg" width="59.882" height="84.224" viewBox="0 0 59.882 84.224">
  <path id="Sérure" d="M220.078,254.48a8.161,8.161,0,0,0-5.967-2.326,8.224,8.224,0,0,0-5.069,14.51v5.8a5.3,5.3,0,1,0,10.6,0v-5.8a8.224,8.224,0,0,0,.434-12.185Zm-2.637,9.737a2.925,2.925,0,0,0-1.088,2.288v5.957a2.011,2.011,0,1,1-4.021,0v-5.957a2.924,2.924,0,0,0-1.087-2.287h0a4.9,4.9,0,0,1-1.832-4.079,4.948,4.948,0,0,1,4.788-4.7l.141,0a4.935,4.935,0,0,1,3.1,8.776Z" transform="translate(-184.4 -210.672)" fill="#efaa45"/>
  <path id="Cadenas" d="M125.419,33.355V21.385a21.385,21.385,0,1,0-42.77,0V33.334A30.516,30.516,0,0,0,74.7,48.249a30.04,30.04,0,0,0,0,12.068c.474-.055.981-.132,1.516-.238.619-.123,1.189-.268,1.708-.421a24.839,24.839,0,0,1,0-10.749c2.4-10.5,12.573-21.273,26.107-21.273A26.649,26.649,0,1,1,77.926,59.657a1.645,1.645,0,0,0-3.223.66,29.939,29.939,0,1,0,50.716-26.962Zm-11.186-7.219a29.918,29.918,0,0,0-20.4,0V21.385a10.2,10.2,0,0,1,20.4,0Zm7.9,4.314a30.006,30.006,0,0,0-4.606-2.888V21.385a13.489,13.489,0,1,0-26.978,0v6.174a29.839,29.839,0,0,0-4.606,2.873V21.385a18.095,18.095,0,0,1,36.19,0Z" transform="translate(-74.091)" fill="#efaa45"/>
</svg>
