<svg xmlns="http://www.w3.org/2000/svg" width="36.227" height="36" viewBox="0 0 36.227 36">
  <path id="Icon_material-euro-symbol" data-name="Icon material-euro-symbol" d="M27.833,34.639a12.6,12.6,0,0,1-11.2-6.806h11.2V23.944H15.35a12.231,12.231,0,0,1,0-3.889H27.833V16.167h-11.2a12.614,12.614,0,0,1,19.425-3.753L39.5,8.972a17.474,17.474,0,0,0-28.156,7.194H4.5v3.889h5.95a16.262,16.262,0,0,0,0,3.889H4.5v3.889h6.844A17.474,17.474,0,0,0,39.5,35.028l-3.461-3.442a12.455,12.455,0,0,1-8.206,3.053Z" transform="translate(-4 -4)" fill="#fff" stroke="#efaa45" stroke-width="1"/>
</svg>
