<svg id="noun_company_3858734" xmlns="http://www.w3.org/2000/svg" width="89.262" height="80.894" viewBox="0 0 89.262 80.894">
  <path id="Tracé_77" data-name="Tracé 77" d="M87.867,84.1H80.893v-4.5c1.64-.751,2.789-2.794,2.789-5.266,0-3.128-1.838-5.579-4.184-5.579s-4.184,2.451-4.184,5.579c0,2.472,1.15,4.515,2.789,5.266v4.5H69.736V33.536L78.1,45.615v20.52a6.082,6.082,0,0,1,2.789,0V45.179a1.394,1.394,0,0,0-.248-.795l-11.3-16.305a1.4,1.4,0,0,0-.732-.537c-14.182-4.415-27.586-1.727-34.447.324v2.941c6.11-1.9,19.138-4.816,32.776-.85v3.777c-13.658-4.319-26.835-1.541-32.776.2v2.928c5.254-1.606,19-4.854,32.776-.195v3.841c-13.556-4.37-26.684-1.7-32.776.053v2.925c5.465-1.639,19.137-4.741,32.776-.035v3.833c-13.465-4.423-26.546-1.86-32.776-.093v2.926c5.654-1.662,19.27-4.635,32.776.118v3.83c-13.38-4.478-26.415-2.017-32.776-.243v2.919C40,55.056,53.53,52.2,66.946,57.019v4.2c-13.658-4.319-26.835-1.541-32.776.2v2.928c5.254-1.606,19-4.854,32.776-.195V68c-13.556-4.37-26.684-1.7-32.776.053v2.925c5.465-1.639,19.137-4.741,32.776-.034V84.1H55.091V77.131A2.793,2.793,0,0,0,52.3,74.341H45.328a2.793,2.793,0,0,0-2.789,2.789V84.1H31.381V9.414l6.276,3.029V24.082c.88-.2,1.813-.393,2.789-.573V13.789l5.579,2.692v6.23q1.36-.137,2.789-.221V15.606a1.4,1.4,0,0,0-.789-1.256L31.012,6.139a1.4,1.4,0,0,0-1.167-.021L7.11,16.1a1.394,1.394,0,0,0-.834,1.277V84.1H1.395a1.395,1.395,0,0,0,0,2.789H87.867a1.395,1.395,0,0,0,0-2.789ZM79.5,71.552c.569,0,1.395,1.087,1.395,2.789s-.826,2.789-1.395,2.789S78.1,76.044,78.1,74.341,78.93,71.552,79.5,71.552ZM45.328,77.131H52.3V84.1H45.328Zm-25.1-63.741,2.789-1.225V84.1H20.223ZM17.434,84.1H14.645V15.839l2.789-1.225ZM25.8,10.939l2.789-1.225V84.1H25.8ZM9.066,18.289l2.789-1.225V84.1H9.066Z" transform="translate(0 -6)" fill="#efaa45"/>
  <path id="Tracé_78" data-name="Tracé 78" d="M52.789,111.789a1.395,1.395,0,1,0,0-2.789H51.395a1.395,1.395,0,0,0,0,2.789Z" transform="translate(-15.132 -37.172)" fill="#efaa45"/>
  <path id="Tracé_79" data-name="Tracé 79" d="M86.789,111.789a1.395,1.395,0,1,0,0-2.789H85.395a1.395,1.395,0,0,0,0,2.789Z" transform="translate(-25.422 -37.172)" fill="#efaa45"/>
</svg>
