<svg xmlns="http://www.w3.org/2000/svg" width="97.638" height="84.835" viewBox="0 0 97.638 84.835">
  <path id="SAV" d="M76.7,16.712C64.571,8.7,48.447,6.872,35.053,9.289,20.068-5.165,3.275,1.484,0,3.395c0,0,11.524,9.793,9.652,18.369-13.643,13.908-7.158,29.393,0,36.705C11.524,67.046,0,76.839,0,76.839,3.244,78.756,19.99,85.384,35.053,71c13.364,2.4,29.488.593,41.649-7.437,18.806-12.007,18.868-34.788,0-46.858ZM46.389,63.49A53.54,53.54,0,0,1,32.5,61.7l-3.118,3.01a28.343,28.343,0,0,1-5.77,4.319,22.572,22.572,0,0,1-8.154,2.323c.158-.281.3-.561.437-.826q4.679-8.673,2.523-15.562c-5.13-4.038-8.2-9.2-8.2-14.843,0-12.931,16.2-23.406,36.176-23.406S82.565,27.187,82.565,40.118,66.364,63.49,46.389,63.49ZM29.034,45.684a5.412,5.412,0,0,1-5.488-5.317c-.11-7.158,10.7-7.314,10.8-.172v.08a5.361,5.361,0,0,1-5.317,5.412Zm11.633-5.317c-.125-7.158,10.682-7.329,10.806-.188v.1C51.535,47.384,40.791,47.461,40.667,40.367Zm22.61,5.317a5.413,5.413,0,0,1-5.489-5.317c-.109-7.158,10.7-7.314,10.806-.172v.08a5.344,5.344,0,0,1-5.317,5.412Z" transform="translate(4.308 2.298)" fill="#efaa45" stroke="#fff" stroke-width="5"/>
</svg>
