<svg xmlns="http://www.w3.org/2000/svg" xmlns:xlink="http://www.w3.org/1999/xlink" viewBox="0 0 1542.7 650.82"><defs><style>.cls-1{fill:none;}.cls-2{fill:url(#Nouvelle_nuance_de_dégradé_1_5);}.cls-3{fill:url(#Dégradé_sans_nom_12);}.cls-4{fill:url(#Dégradé_sans_nom_12-2);}.cls-5{fill:url(#Dégradé_sans_nom_12-3);}.cls-6{fill:url(#Dégradé_sans_nom_12-4);}.cls-7{fill:url(#Dégradé_sans_nom_12-5);}.cls-8{fill:#4c8468;}.cls-9{fill:#7baa68;}.cls-10{fill:#efaa45;}.cls-11{clip-path:url(#clip-path);}.cls-12{fill:url(#Dégradé_sans_nom_20);}.cls-13{fill:url(#Dégradé_sans_nom_20-2);}.cls-14{fill:url(#Dégradé_sans_nom_18);}</style><linearGradient id="Nouvelle_nuance_de_dégradé_1_5" x1="467.3" y1="379.75" x2="255.01" y2="-19.51" gradientUnits="userSpaceOnUse"><stop offset="0" stop-color="#7baa68"/><stop offset="1" stop-color="#4c8468"/></linearGradient><linearGradient id="Dégradé_sans_nom_12" x1="332.14" y1="265.42" x2="725.49" y2="265.42" gradientUnits="userSpaceOnUse"><stop offset="0" stop-color="#4c8468"/><stop offset="1" stop-color="#7baa68"/></linearGradient><linearGradient id="Dégradé_sans_nom_12-2" x1="666.95" y1="79.83" x2="856.23" y2="451.32" xlink:href="#Dégradé_sans_nom_12"/><linearGradient id="Dégradé_sans_nom_12-3" x1="1124.52" y1="225.73" x2="1307.99" y2="225.73" xlink:href="#Dégradé_sans_nom_12"/><linearGradient id="Dégradé_sans_nom_12-4" x1="797.68" y1="265.31" x2="1214.5" y2="265.31" xlink:href="#Dégradé_sans_nom_12"/><linearGradient id="Dégradé_sans_nom_12-5" x1="1170.09" y1="266.64" x2="1542.75" y2="266.64" xlink:href="#Dégradé_sans_nom_12"/><clipPath id="clip-path" transform="translate(-0.06)"><path class="cls-1" d="M233.77,249.65a149.49,149.49,0,0,0,7.59-47.27c0-74.71-54-91.48-120.68-91.48S0,127.67,0,202.38a149.45,149.45,0,0,0,7.59,47.27l79.53,252c4.84,15.55,18,26.72,33.56,26.72s28.72-11.17,33.56-26.72c18.14-57.48,18.27-57.92,79.53-252Z"/></clipPath><linearGradient id="Dégradé_sans_nom_20" x1="-2349.29" y1="329.83" x2="-2281.25" y2="329.83" gradientTransform="translate(2435.95)" gradientUnits="userSpaceOnUse"><stop offset="0" stop-color="#efaa45"/><stop offset="1" stop-color="#ed8843"/></linearGradient><linearGradient id="Dégradé_sans_nom_20-2" x1="-2318.13" y1="424.27" x2="-2254.2" y2="424.27" xlink:href="#Dégradé_sans_nom_20"/><linearGradient id="Dégradé_sans_nom_18" x1="-2434.15" y1="235.39" x2="-2362.86" y2="235.39" gradientTransform="translate(2435.95)" gradientUnits="userSpaceOnUse"><stop offset="0" stop-color="#ed8843"/><stop offset="1" stop-color="#efaa45"/></linearGradient></defs><g id="Calque_2" data-name="Calque 2"><g id="Calque_1-2" data-name="Calque 1"><path class="cls-2" d="M470.9,292a72.66,72.66,0,0,0-7.08-28.59c-3.88-8.48-32.69-71.19-61.72-127-15.42-31.72-34.07-68.77-50.66-98C345.59,28.16,336.5,12.65,319,4.78,307.45-.39,298.43.5,268.19.78c-12.12.11-29.54.14-50.8-.29L415.82,407.12q25.65-44.52,51.31-89A73,73,0,0,0,470.9,292Z" transform="translate(-0.06)"/><path class="cls-3" d="M705.1,34.55A107.3,107.3,0,0,0,691.63,15c-12.94-9.5-26.42-12-33.81-13.3-7.54-1.31-29.6-4.82-53.29,7.19a81.94,81.94,0,0,0-20.31,14.62,86.61,86.61,0,0,0-9.64,11.17L468.63,250l-35,73.76L332.14,530.52l83.46.09a47.59,47.59,0,0,0,17.48-3.44c18-7.1,27.79-23.43,32.57-33.58Q550.91,311.79,636.16,130q2.93-6.25,5.86-12.49c1.54-3.22,18.36-37.48,43.54-47.17a54.48,54.48,0,0,1,21.77-3.63,45.23,45.23,0,0,1,18.16,5.54C718.59,59,711.69,46.15,705.1,34.55Z" transform="translate(-0.06)"/><path class="cls-4" d="M725.49,72.53A31.89,31.89,0,0,0,707.33,67a54.48,54.48,0,0,0-21.77,3.63c-25.18,9.69-42,44-43.54,47.17l-5.86,12.5L797.68,458.62a45.45,45.45,0,0,0,18.16,5.54,54.48,54.48,0,0,0,21.77-3.63c25.19-9.69,42-43.95,43.55-47.17L887,400.87Z" transform="translate(-0.06)"/><path class="cls-5" d="M1214.5,72.7a45.68,45.68,0,0,0-17.86-5.33,55.26,55.26,0,0,0-22.07,3.68c-13.06,5-23.87,16.54-31.55,27.05a162.44,162.44,0,0,0-12.61,20.78c-2.6,5-4.55,9.38-5.89,12.56q61.65,126.36,123.32,252.72l28.81-58.66q6.43-13.59,12.88-27.16L1308,259C1269.16,178.92,1236.41,114.42,1214.5,72.7Z" transform="translate(-0.06)"/><path class="cls-6" d="M1197,39.89c-5.07-9.24-14-24.84-31.18-33.3-1.62-.57-3.31-1.11-5.08-1.68a97.43,97.43,0,0,0-12.52-3.09l-1.74-.31A62.39,62.39,0,0,0,1136.8.27a88.42,88.42,0,0,0-13.57,0A84.88,84.88,0,0,0,1113,1.67,80.2,80.2,0,0,0,1092.4,8.8a82.89,82.89,0,0,0-20.53,14.77l-.06.06A87.46,87.46,0,0,0,1062,35L989.19,183l-1,2.07h.05Q937.61,293,887,400.87l-5.85,12.49c-1.54,3.22-18.36,37.48-43.55,47.17a54.48,54.48,0,0,1-21.77,3.63,45.45,45.45,0,0,1-18.16-5.54c6.9,13.24,13.81,26.08,20.39,37.68a107.3,107.3,0,0,0,13.47,19.51c12.94,9.49,26.42,12,33.81,13.3s29.6,4.81,53.29-7.19A81.76,81.76,0,0,0,939,507.3a86.61,86.61,0,0,0,9.64-11.17q87.95-182.29,175.88-364.58l0-.11c1.34-3.18,3.29-7.52,5.89-12.56A162.44,162.44,0,0,1,1143,98.1c7.68-10.51,18.49-22,31.55-27a55.26,55.26,0,0,1,22.07-3.68,45.68,45.68,0,0,1,17.86,5.33C1207.49,59.36,1201.59,48.33,1197,39.89Z" transform="translate(-0.06)"/><path class="cls-7" d="M1522.85,2c-12.64.11-23.36.07-31.6,0-29.19-.27-38.88-1.08-49.82,3.36l-1.67.7c-16.49,7.26-26.59,21-32.92,34.15q-60.46,127.26-120.94,254.51-6.44,13.57-12.88,27.16-14.4,29.33-28.81,58.66-37.05,75.48-74.12,151l84.62.09a48.06,48.06,0,0,0,17.72-3.49c18.28-7.19,28.18-23.75,33-34l72.78-155.21L1501.76,85.69q17.9-36.64,35.77-73.3l5.22-10.69C1535.66,1.84,1529,1.93,1522.85,2Z" transform="translate(-0.06)"/><path class="cls-8" d="M368.36,625.74c0,14.7-10.46,24.3-25.8,24.3H330.8v-48.6h11.76C358.23,601.44,368.36,611.11,368.36,625.74Zm-31.49,18.61h5.95c11.23,0,19.33-6.72,19.33-18.54,0-12-8.1-18.68-19.27-18.68h-6Z" transform="translate(-0.06)"/><path class="cls-8" d="M420,634.36H393.76c.85,7,5.82,11.24,12.48,11.24A18.25,18.25,0,0,0,418.12,641v5.94a20.59,20.59,0,0,1-12.34,3.92c-11,0-17.9-7.38-17.9-18.29,0-11.43,7.91-18.61,17.05-18.61,8.36,0,15.22,6.14,15.22,17.76A16,16,0,0,1,420,634.36Zm-5.61-4.51c-.13-7.31-4.64-10.71-9.47-10.71-5.42,0-10.26,4.12-11.11,10.71Z" transform="translate(-0.06)"/><path class="cls-8" d="M472.08,597.79h6V650h-6Z" transform="translate(-0.06)"/><path class="cls-8" d="M499.57,632.4c0-11.3,7.77-18.48,16.07-18.48a14.26,14.26,0,0,1,12.6,7.31l.72-6.53h4.9V650H529l-.72-6.47a14.19,14.19,0,0,1-12.6,7.25C507.34,650.82,499.57,643.57,499.57,632.4Zm28.48-.06c0-7.58-5-12.8-11.17-12.8s-11.23,5.22-11.23,12.86,4.89,12.8,11.23,12.8S528.05,640,528.05,632.34Z" transform="translate(-0.06)"/><path class="cls-8" d="M594.47,614.7H604.6v5.23H594.47v17.5c0,5.49,3.27,7.77,7.78,7.77a18.78,18.78,0,0,0,3.13-.32v5.22a22.2,22.2,0,0,1-4.18.39c-7.64,0-12.6-4.57-12.6-12.8V619.93h-5.29V614.7h5.42v-8.29h5.74Z" transform="translate(-0.06)"/><path class="cls-8" d="M654.76,634.36H628.57c.85,7,5.81,11.24,12.48,11.24A18.29,18.29,0,0,0,652.93,641v5.94a20.59,20.59,0,0,1-12.34,3.92c-11,0-17.9-7.38-17.9-18.29,0-11.43,7.9-18.61,17-18.61,8.36,0,15.22,6.14,15.22,17.76A16,16,0,0,1,654.76,634.36Zm-5.62-4.51c-.13-7.31-4.63-10.71-9.47-10.71-5.42,0-10.25,4.12-11.1,10.71Z" transform="translate(-0.06)"/><path class="cls-8" d="M676.25,614.7H681l.65,5.62h.07a11.43,11.43,0,0,1,10.12-6,12.72,12.72,0,0,1,2.35.2v5.74a15.2,15.2,0,0,0-2.48-.26c-4.7,0-9.47,3-9.47,9.93V650h-6Z" transform="translate(-0.06)"/><path class="cls-8" d="M713.48,614.7h4.77l.65,5.62H719a11.44,11.44,0,0,1,10.12-6,12.72,12.72,0,0,1,2.35.2v5.74A15.2,15.2,0,0,0,729,620c-4.7,0-9.47,3-9.47,9.93V650h-6Z" transform="translate(-0.06)"/><path class="cls-8" d="M779.32,634.36H753.13c.84,7,5.81,11.24,12.47,11.24A18.3,18.3,0,0,0,777.49,641v5.94a20.64,20.64,0,0,1-12.35,3.92c-11,0-17.89-7.38-17.89-18.29,0-11.43,7.9-18.61,17-18.61,8.37,0,15.22,6.14,15.22,17.76A16.12,16.12,0,0,1,779.32,634.36Zm-5.62-4.51c-.13-7.31-4.64-10.71-9.47-10.71-5.42,0-10.26,4.12-11.1,10.71Z" transform="translate(-0.06)"/><path class="cls-8" d="M829,632.4c0-11.3,7.77-18.48,16.07-18.48a14.26,14.26,0,0,1,12.6,7.31l.72-6.53h4.9V650h-4.9l-.72-6.47a14.19,14.19,0,0,1-12.6,7.25C836.79,650.82,829,643.57,829,632.4Zm28.48-.06c0-7.58-5-12.8-11.17-12.8s-11.23,5.22-11.23,12.86,4.89,12.8,11.23,12.8S857.5,640,857.5,632.34Zm-4.38-23h-5l-9-11h6.47Z" transform="translate(-0.06)"/><path class="cls-8" d="M917.59,597.79h6V650h-6Z" transform="translate(-0.06)"/><path class="cls-8" d="M948.55,604.38v-2.94h5.68v2.68c0,4.9-2.22,11.1-3.92,15.22H945.8A51.18,51.18,0,0,0,948.55,604.38Z" transform="translate(-0.06)"/><path class="cls-8" d="M971.86,632.4c0-11.3,7.78-18.48,16.07-18.48a14.29,14.29,0,0,1,12.61,7.31l.71-6.53h4.9V650h-4.9l-.71-6.47a14.21,14.21,0,0,1-12.61,7.25C979.64,650.82,971.86,643.57,971.86,632.4Zm28.48-.06c0-7.58-5-12.8-11.17-12.8s-11.23,5.22-11.23,12.86,4.9,12.8,11.23,12.8S1000.34,640,1000.34,632.34Z" transform="translate(-0.06)"/><path class="cls-8" d="M1051.55,617v5.94a16.75,16.75,0,0,0-10.59-3.66c-4.44,0-6.92,1.9-6.92,4.77,0,3.14,3.07,4.31,7.84,5.68,5.42,1.57,11.56,3.34,11.56,10.45,0,6.47-5,10.65-13.19,10.65A19.55,19.55,0,0,1,1028,646.9v-6.46a16.82,16.82,0,0,0,12,5c4.77,0,7.51-2.09,7.51-5.22,0-3.4-3.33-4.51-8.42-6.07-5.82-1.77-11-3.66-11-9.87,0-5.94,4.9-10.38,12.74-10.38C1045,613.92,1049.06,615.09,1051.55,617Z" transform="translate(-0.06)"/><path class="cls-8" d="M1096.42,617v5.94a16.75,16.75,0,0,0-10.59-3.66c-4.44,0-6.92,1.9-6.92,4.77,0,3.14,3.07,4.31,7.84,5.68,5.42,1.57,11.56,3.34,11.56,10.45,0,6.47-5,10.65-13.19,10.65a19.55,19.55,0,0,1-12.22-3.92v-6.46a16.82,16.82,0,0,0,12,5c4.77,0,7.51-2.09,7.51-5.22,0-3.4-3.33-4.51-8.42-6.07-5.82-1.77-11-3.66-11-9.87,0-5.94,4.9-10.38,12.74-10.38C1089.82,613.92,1093.93,615.09,1096.42,617Z" transform="translate(-0.06)"/><path class="cls-8" d="M1119,603a3.73,3.73,0,1,1,3.72,3.65A3.59,3.59,0,0,1,1119,603Zm.72,11.75h6V650h-6Z" transform="translate(-0.06)"/><path class="cls-8" d="M1179.3,634.36h-26.19c.85,7,5.81,11.24,12.47,11.24a18.3,18.3,0,0,0,11.89-4.64v5.94a20.6,20.6,0,0,1-12.35,3.92c-11,0-17.89-7.38-17.89-18.29,0-11.43,7.9-18.61,17-18.61,8.36,0,15.22,6.14,15.22,17.76A16,16,0,0,1,1179.3,634.36Zm-5.62-4.51c-.13-7.31-4.64-10.71-9.47-10.71-5.42,0-10.25,4.12-11.1,10.71Z" transform="translate(-0.06)"/><path class="cls-8" d="M1207.77,614.7h10.13v5.23h-10.13v17.5c0,5.49,3.27,7.77,7.78,7.77a18.78,18.78,0,0,0,3.13-.32v5.22a22.2,22.2,0,0,1-4.18.39c-7.64,0-12.6-4.57-12.6-12.8V619.93h-5.3V614.7H1202v-8.29h5.74Z" transform="translate(-0.06)"/><path class="cls-8" d="M1245.92,614.7H1256v5.23h-10.12v17.5c0,5.49,3.26,7.77,7.77,7.77a19,19,0,0,0,3.14-.32v5.22a22.4,22.4,0,0,1-4.18.39c-7.65,0-12.61-4.57-12.61-12.8V619.93h-5.29V614.7h5.42v-8.29h5.75Z" transform="translate(-0.06)"/><path class="cls-8" d="M1306.21,634.36H1280c.85,7,5.81,11.24,12.47,11.24a18.3,18.3,0,0,0,11.89-4.64v5.94a20.6,20.6,0,0,1-12.35,3.92c-11,0-17.89-7.38-17.89-18.29,0-11.43,7.9-18.61,17-18.61,8.36,0,15.21,6.14,15.21,17.76A16.12,16.12,0,0,1,1306.21,634.36Zm-5.62-4.51c-.13-7.31-4.64-10.71-9.47-10.71-5.42,0-10.25,4.12-11.1,10.71Z" transform="translate(-0.06)"/><path class="cls-9" d="M153.58,45.06c-4.48-2.44-10.53-.54-16.32,4.39a1,1,0,0,1-1.64-.82v0c0-24.22-8.49-39.09-19-39.09s-19,14.87-19,39.09v0a1,1,0,0,1-1.65.82c-5.78-4.93-11.83-6.83-16.31-4.39C72,49.28,71.84,64.92,79.48,80c4.39,8.67,10.4,15.26,16.18,18.5A20.06,20.06,0,0,1,106,116v19.2h21.35V116a20,20,0,0,1,10.31-17.5c5.79-3.24,11.79-9.83,16.19-18.5,7.64-15.07,7.53-30.71-.25-34.93Z" transform="translate(-0.06)"/><path class="cls-10" d="M233.52,244.3c-22.85,0-41.35-20.78-41.34-46.39a49.69,49.69,0,0,1,8.91-28.66c-23-2.52-40.91-24.23-40.9-50.63,0-1.73.09-3.43.24-5.12a275.49,275.49,0,0,0-39.65-2.6C54.13,110.87.09,127.6.06,202.31a149.54,149.54,0,0,0,7.56,47.28C68.79,443.73,68.92,444.17,87,501.66c4.83,15.56,18,26.73,33.55,26.74s28.73-11.15,33.57-26.7c18.17-57.47,18.31-57.91,79.65-252,.61-1.82,1.19-3.67,1.73-5.53C234.86,244.22,234.19,244.3,233.52,244.3Z" transform="translate(-0.06)"/><g class="cls-11"><path class="cls-12" d="M146,339.62H95.39c-4.82,0-8.73-4.38-8.73-9.79s3.91-9.78,8.73-9.78H146c4.82,0,8.73,4.38,8.73,9.78S150.79,339.62,146,339.62Z" transform="translate(-0.06)"/><path class="cls-13" d="M175.58,434.06c1.84-5.85,3.88-12.29,6.17-19.58h-55.2c-4.83,0-8.73,4.38-8.73,9.79s3.9,9.78,8.73,9.78h49Z" transform="translate(-0.06)"/><path class="cls-14" d="M64.36,225.6H1.8a145.71,145.71,0,0,0,4.4,19.58H64.36c4.82,0,8.73-4.38,8.73-9.79S69.18,225.6,64.36,225.6Z" transform="translate(-0.06)"/></g></g></g></svg>