<svg id="Calque_1" data-name="Calque 1" xmlns="http://www.w3.org/2000/svg" viewBox="0 0 242.91 73.18"><defs><style>.cls-1{fill:#eeaa45;}</style></defs><path id="Tracé_80" data-name="Tracé 80" class="cls-1" d="M10.78,18.13C24.09,0,49.26,2.89,57.34,3.82,67.33,5,71,7.89,92.72,11.28c7.65,1.2,11.48,1.79,16.56,2,15.18.49,25.11-3.42,35.59-6.36,3.91-1.1,30.51-8.34,60.52-5,24.27,2.69,30.36,10,32.59,13.2,4.91,7,8.69,18.87,5.79,30.07A33.25,33.25,0,0,1,236,59.08a35,35,0,0,1-15.31,10c-30.76,10.83-65.49,1-65.49,1C151.31,69,141.41,66,127.59,63c-7.44-1.6-11.57-2.23-16.56-2.32-5.31-.1-9.87.44-19.65,2.32C80,65.17,73.3,66.92,68.51,68c-15.51,3.5-44,9.91-59.9-5.25a19.59,19.59,0,0,1-4-5.14C-1.38,46.38,3.34,28.28,10.78,18.13Z" transform="translate(-1.87 -1)"/></svg>